<svg preserveAspectRatio="none" width="100%" height="100%" overflow="visible" style="display: block;" viewBox="0 0 16 16" fill="none" xmlns="http://www.w3.org/2000/svg">
<g id="majesticons:monitor-line">
<path id="Vector" d="M8 10.6667H12.6667C13.0203 10.6667 13.3594 10.5262 13.6095 10.2761C13.8595 10.0261 14 9.68696 14 9.33333V4C14 3.64638 13.8595 3.30724 13.6095 3.05719C13.3594 2.80714 13.0203 2.66667 12.6667 2.66667H3.33333C2.97971 2.66667 2.64057 2.80714 2.39052 3.05719C2.14048 3.30724 2 3.64638 2 4V9.33333C2 9.68696 2.14048 10.0261 2.39052 10.2761C2.64057 10.5262 2.97971 10.6667 3.33333 10.6667H8ZM8 10.6667V13.3333M8 13.3333H10.6667M8 13.3333H5.33333" stroke="var(--stroke-0, white)" stroke-linecap="round" stroke-linejoin="round"/>
</g>
</svg>
