<svg preserveAspectRatio="none" width="100%" height="100%" overflow="visible" style="display: block;" viewBox="0 0 22 22" fill="none" xmlns="http://www.w3.org/2000/svg">
<g id="Icon">
<path id="Vector" d="M13.7502 1.83301H8.25016C7.7439 1.83301 7.3335 2.24341 7.3335 2.74967V4.58301C7.3335 5.08927 7.7439 5.49967 8.25016 5.49967H13.7502C14.2564 5.49967 14.6668 5.08927 14.6668 4.58301V2.74967C14.6668 2.24341 14.2564 1.83301 13.7502 1.83301Z" stroke="var(--stroke-0, #856404)" stroke-width="1.83333" stroke-linecap="round" stroke-linejoin="round"/>
<path id="Vector_2" d="M14.6665 3.66699H16.4998C16.9861 3.66699 17.4524 3.86015 17.7962 4.20396C18.14 4.54778 18.3332 5.0141 18.3332 5.50033V18.3337C18.3332 18.8199 18.14 19.2862 17.7962 19.63C17.4524 19.9738 16.9861 20.167 16.4998 20.167H5.49984C5.01361 20.167 4.54729 19.9738 4.20347 19.63C3.85966 19.2862 3.6665 18.8199 3.6665 18.3337V5.50033C3.6665 5.0141 3.85966 4.54778 4.20347 4.20396C4.54729 3.86015 5.01361 3.66699 5.49984 3.66699H7.33317" stroke="var(--stroke-0, #856404)" stroke-width="1.83333" stroke-linecap="round" stroke-linejoin="round"/>
<path id="Vector_3" d="M8.25 12.8333L10.0833 14.6667L13.75 11" stroke="var(--stroke-0, #856404)" stroke-width="1.83333" stroke-linecap="round" stroke-linejoin="round"/>
</g>
</svg>
