<svg preserveAspectRatio="none" width="100%" height="100%" overflow="visible" style="display: block;" viewBox="0 0 45 45" fill="none" xmlns="http://www.w3.org/2000/svg">
<g id="Icon" opacity="0.5">
<path id="Vector" d="M22.5 13.125V39.375" stroke="var(--stroke-0, white)" stroke-width="3.75" stroke-linecap="round" stroke-linejoin="round"/>
<path id="Vector_2" d="M5.625 33.75C5.12772 33.75 4.65081 33.5525 4.29917 33.2008C3.94754 32.8492 3.75 32.3723 3.75 31.875V7.5C3.75 7.00272 3.94754 6.52581 4.29917 6.17417C4.65081 5.82254 5.12772 5.625 5.625 5.625H15C16.9891 5.625 18.8968 6.41518 20.3033 7.8217C21.7098 9.22822 22.5 11.1359 22.5 13.125C22.5 11.1359 23.2902 9.22822 24.6967 7.8217C26.1032 6.41518 28.0109 5.625 30 5.625H39.375C39.8723 5.625 40.3492 5.82254 40.7008 6.17417C41.0525 6.52581 41.25 7.00272 41.25 7.5V31.875C41.25 32.3723 41.0525 32.8492 40.7008 33.2008C40.3492 33.5525 39.8723 33.75 39.375 33.75H28.125C26.6332 33.75 25.2024 34.3426 24.1475 35.3975C23.0926 36.4524 22.5 37.8832 22.5 39.375C22.5 37.8832 21.9074 36.4524 20.8525 35.3975C19.7976 34.3426 18.3668 33.75 16.875 33.75H5.625Z" stroke="var(--stroke-0, white)" stroke-width="3.75" stroke-linecap="round" stroke-linejoin="round"/>
</g>
</svg>
