<svg preserveAspectRatio="none" width="100%" height="100%" overflow="visible" style="display: block;" viewBox="0 0 26 26" fill="none" xmlns="http://www.w3.org/2000/svg">
<g id="Icon">
<path id="Vector" d="M23.205 11.8322C23.3989 11.7466 23.5635 11.606 23.6783 11.4279C23.7932 11.2497 23.8532 11.0418 23.851 10.8298C23.8488 10.6178 23.7845 10.4112 23.666 10.2354C23.5475 10.0597 23.3801 9.92253 23.1844 9.841L13.8992 5.61167C13.6169 5.48291 13.3103 5.41628 13 5.41628C12.6897 5.41628 12.3831 5.48291 12.1008 5.61167L2.81667 9.83667C2.6238 9.92114 2.45973 10.06 2.34451 10.2362C2.2293 10.4125 2.16794 10.6184 2.16794 10.829C2.16794 11.0396 2.2293 11.2455 2.34451 11.4218C2.45973 11.598 2.6238 11.7369 2.81667 11.8213L12.1008 16.055C12.3831 16.1838 12.6897 16.2504 13 16.2504C13.3103 16.2504 13.6169 16.1838 13.8992 16.055L23.205 11.8322Z" stroke="var(--stroke-0, #DC2626)" stroke-width="2.16667" stroke-linecap="round" stroke-linejoin="round"/>
<path id="Vector_2" d="M23.8333 10.8333V17.3333" stroke="var(--stroke-0, #DC2626)" stroke-width="2.16667" stroke-linecap="round" stroke-linejoin="round"/>
<path id="Vector_3" d="M6.5 13.5417V17.3333C6.5 18.1953 7.18482 19.0219 8.40381 19.6314C9.62279 20.2409 11.2761 20.5833 13 20.5833C14.7239 20.5833 16.3772 20.2409 17.5962 19.6314C18.8152 19.0219 19.5 18.1953 19.5 17.3333V13.5417" stroke="var(--stroke-0, #DC2626)" stroke-width="2.16667" stroke-linecap="round" stroke-linejoin="round"/>
</g>
</svg>
