<svg preserveAspectRatio="none" width="100%" height="100%" overflow="visible" style="display: block;" viewBox="0 0 23.6839 20.014" fill="none" xmlns="http://www.w3.org/2000/svg">
<path id="Vector" d="M22.3937 16.0139L13.727 2.0139C13.538 1.7061 13.264 1.45008 12.9328 1.27197C12.6017 1.09385 12.2253 1 11.842 1C11.4587 1 11.0823 1.09385 10.7512 1.27197C10.42 1.45008 10.146 1.7061 9.957 2.0139L1.29033 16.0139C1.09932 16.3193 0.999159 16.6658 1.00001 17.0184C1.00085 17.371 1.10267 17.7171 1.29515 18.0217C1.48762 18.3263 1.76391 18.5785 2.096 18.7527C2.42809 18.927 2.80419 19.0171 3.18616 19.0139H20.5195C20.8996 19.0135 21.273 18.9209 21.6021 18.7452C21.9311 18.5695 22.2043 18.317 22.3942 18.013C22.5841 17.709 22.684 17.3643 22.6839 17.0134C22.6838 16.6625 22.5837 16.3178 22.3937 16.0139Z" stroke="var(--stroke-0, #DC2626)" stroke-width="2" stroke-linecap="round" stroke-linejoin="round"/>
</svg>
