<svg preserveAspectRatio="none" width="100%" height="100%" overflow="visible" style="display: block;" viewBox="0 0 16 16" fill="none" xmlns="http://www.w3.org/2000/svg">
<g id="material-symbols:list-rounded">
<path id="Vector" d="M4.88889 5.6C4.66852 5.6 4.48393 5.5232 4.33511 5.3696C4.1863 5.216 4.11163 5.02613 4.11111 4.8C4.11059 4.57387 4.18526 4.384 4.33511 4.2304C4.48496 4.0768 4.66956 4 4.88889 4H14.2222C14.4426 4 14.6274 4.0768 14.7768 4.2304C14.9261 4.384 15.0005 4.57387 15 4.8C14.9995 5.02613 14.9248 5.21627 14.776 5.3704C14.6272 5.52453 14.4426 5.60106 14.2222 5.6H4.88889ZM4.88889 8.79999C4.66852 8.79999 4.48393 8.72319 4.33511 8.56959C4.1863 8.41599 4.11163 8.22613 4.11111 7.99999C4.11059 7.77386 4.18526 7.584 4.33511 7.4304C4.48496 7.2768 4.66956 7.2 4.88889 7.2H14.2222C14.4426 7.2 14.6274 7.2768 14.7768 7.4304C14.9261 7.584 15.0005 7.77386 15 7.99999C14.9995 8.22613 14.9248 8.41626 14.776 8.57039C14.6272 8.72453 14.4426 8.80106 14.2222 8.79999H4.88889ZM4.88889 12C4.66852 12 4.48393 11.9232 4.33511 11.7696C4.1863 11.616 4.11163 11.4261 4.11111 11.2C4.11059 10.9739 4.18526 10.784 4.33511 10.6304C4.48496 10.4768 4.66956 10.4 4.88889 10.4H14.2222C14.4426 10.4 14.6274 10.4768 14.7768 10.6304C14.9261 10.784 15.0005 10.9739 15 11.2C14.9995 11.4261 14.9248 11.6163 14.776 11.7704C14.6272 11.9245 14.4426 12.0011 14.2222 12H4.88889ZM1.77778 5.6C1.55741 5.6 1.37282 5.5232 1.224 5.3696C1.07519 5.216 1.00052 5.02613 1 4.8C0.999484 4.57387 1.07415 4.384 1.224 4.2304C1.37385 4.0768 1.55845 4 1.77778 4C1.99711 4 2.18196 4.0768 2.33234 4.2304C2.48271 4.384 2.55711 4.57387 2.55556 4.8C2.554 5.02613 2.47934 5.21627 2.33156 5.3704C2.18378 5.52453 1.99919 5.60106 1.77778 5.6ZM1.77778 8.79999C1.55741 8.79999 1.37282 8.72319 1.224 8.56959C1.07519 8.41599 1.00052 8.22613 1 7.99999C0.999484 7.77386 1.07415 7.584 1.224 7.4304C1.37385 7.2768 1.55845 7.2 1.77778 7.2C1.99711 7.2 2.18196 7.2768 2.33234 7.4304C2.48271 7.584 2.55711 7.77386 2.55556 7.99999C2.554 8.22613 2.47934 8.41626 2.33156 8.57039C2.18378 8.72453 1.99919 8.80106 1.77778 8.79999ZM1.77778 12C1.55741 12 1.37282 11.9232 1.224 11.7696C1.07519 11.616 1.00052 11.4261 1 11.2C0.999484 10.9739 1.07415 10.784 1.224 10.6304C1.37385 10.4768 1.55845 10.4 1.77778 10.4C1.99711 10.4 2.18196 10.4768 2.33234 10.6304C2.48271 10.784 2.55711 10.9739 2.55556 11.2C2.554 11.4261 2.47934 11.6163 2.33156 11.7704C2.18378 11.9245 1.99919 12.0011 1.77778 12Z" fill="var(--fill-0, white)"/>
</g>
</svg>
