<svg preserveAspectRatio="none" width="100%" height="100%" overflow="visible" style="display: block;" viewBox="0 0 18 18" fill="none" xmlns="http://www.w3.org/2000/svg">
<g id="fluent:clipboard-task-list-ltr-24-regular">
<path id="Vector" d="M9.375 7.6875C9.375 7.53831 9.43426 7.39524 9.53975 7.28975C9.64524 7.18426 9.78831 7.125 9.9375 7.125H12.5625C12.7117 7.125 12.8548 7.18426 12.9602 7.28975C13.0657 7.39524 13.125 7.53831 13.125 7.6875C13.125 7.83668 13.0657 7.97976 12.9602 8.08525C12.8548 8.19073 12.7117 8.25 12.5625 8.25H9.9375C9.78831 8.25 9.64524 8.19073 9.53975 8.08525C9.43426 7.97976 9.375 7.83668 9.375 7.6875ZM9.9375 11.25C9.78831 11.25 9.64524 11.3093 9.53975 11.4148C9.43426 11.5202 9.375 11.6633 9.375 11.8125C9.375 11.9617 9.43426 12.1048 9.53975 12.2102C9.64524 12.3157 9.78831 12.375 9.9375 12.375H12.5625C12.7117 12.375 12.8548 12.3157 12.9602 12.2102C13.0657 12.1048 13.125 11.9617 13.125 11.8125C13.125 11.6633 13.0657 11.5202 12.9602 11.4148C12.8548 11.3093 12.7117 11.25 12.5625 11.25H9.9375ZM8.085 7.335C8.14026 7.2835 8.18459 7.2214 8.21533 7.1524C8.24608 7.0834 8.26261 7.00892 8.26394 6.93339C8.26527 6.85786 8.25138 6.78284 8.22309 6.7128C8.1948 6.64276 8.15269 6.57913 8.09928 6.52572C8.04586 6.47231 7.98224 6.4302 7.9122 6.40191C7.84215 6.37362 7.76713 6.35972 7.69161 6.36105C7.61608 6.36239 7.54159 6.37892 7.47259 6.40966C7.40359 6.44041 7.34149 6.48473 7.29 6.54L6.1875 7.6425L5.835 7.29C5.72837 7.19064 5.58733 7.13655 5.44161 7.13912C5.29588 7.14169 5.15684 7.20072 5.05378 7.30378C4.95072 7.40684 4.89169 7.54588 4.88912 7.69161C4.88655 7.83733 4.94064 7.97837 5.04 8.085L5.79 8.835C5.89547 8.94034 6.03844 8.9995 6.1875 8.9995C6.33656 8.9995 6.47953 8.94034 6.585 8.835L8.085 7.335ZM8.085 10.665C8.19034 10.7705 8.2495 10.9134 8.2495 11.0625C8.2495 11.2116 8.19034 11.3545 8.085 11.46L6.585 12.96C6.47953 13.0653 6.33656 13.1245 6.1875 13.1245C6.03844 13.1245 5.89547 13.0653 5.79 12.96L5.04 12.21C4.98473 12.1585 4.94041 12.0964 4.90966 12.0274C4.87892 11.9584 4.86239 11.8839 4.86105 11.8084C4.85972 11.7329 4.87362 11.6578 4.90191 11.5878C4.9302 11.5178 4.97231 11.4541 5.02572 11.4007C5.07913 11.3473 5.14276 11.3052 5.2128 11.2769C5.28284 11.2486 5.35786 11.2347 5.43339 11.2361C5.50892 11.2374 5.5834 11.2539 5.6524 11.2847C5.7214 11.3154 5.7835 11.3597 5.835 11.415L6.1875 11.7675L7.29 10.665C7.39547 10.5597 7.53843 10.5005 7.6875 10.5005C7.83656 10.5005 7.97953 10.5597 8.085 10.665ZM11.9955 3.063C11.9641 2.63814 11.7731 2.24089 11.4609 1.95099C11.1488 1.66108 10.7385 1.49997 10.3125 1.5H7.6875C7.27242 1.50001 6.87191 1.653 6.56253 1.92973C6.25315 2.20645 6.05662 2.58749 6.0105 3H4.6875C4.23995 3 3.81072 3.17779 3.49426 3.49426C3.17779 3.81072 3 4.23995 3 4.6875V14.8125C3 15.2601 3.17779 15.6893 3.49426 16.0057C3.81072 16.3222 4.23995 16.5 4.6875 16.5H13.3125C13.5341 16.5 13.7535 16.4563 13.9583 16.3715C14.163 16.2867 14.349 16.1624 14.5057 16.0057C14.6624 15.849 14.7867 15.663 14.8715 15.4583C14.9563 15.2535 15 15.0341 15 14.8125V4.6875C15 4.46589 14.9563 4.24646 14.8715 4.04172C14.7867 3.83698 14.6624 3.65096 14.5057 3.49426C14.349 3.33756 14.163 3.21326 13.9583 3.12845C13.7535 3.04365 13.5341 3 13.3125 3H11.9895L11.9955 3.063ZM11.9955 3.072L12 3.1875C12 3.1485 11.998 3.11 11.9955 3.072ZM7.6875 4.875H10.3125C10.8975 4.875 11.4127 4.57725 11.7157 4.125H13.3125C13.4617 4.125 13.6048 4.18426 13.7102 4.28975C13.8157 4.39524 13.875 4.53831 13.875 4.6875V14.8125C13.875 14.9617 13.8157 15.1048 13.7102 15.2102C13.6048 15.3157 13.4617 15.375 13.3125 15.375H4.6875C4.53831 15.375 4.39524 15.3157 4.28975 15.2102C4.18426 15.1048 4.125 14.9617 4.125 14.8125V4.6875C4.125 4.53831 4.18426 4.39524 4.28975 4.28975C4.39524 4.18426 4.53831 4.125 4.6875 4.125H6.28425C6.58725 4.57725 7.1025 4.875 7.6875 4.875ZM7.6875 2.625H10.3125C10.4617 2.625 10.6048 2.68426 10.7102 2.78975C10.8157 2.89524 10.875 3.03832 10.875 3.1875C10.875 3.33668 10.8157 3.47976 10.7102 3.58525C10.6048 3.69074 10.4617 3.75 10.3125 3.75H7.6875C7.53831 3.75 7.39524 3.69074 7.28975 3.58525C7.18426 3.47976 7.125 3.33668 7.125 3.1875C7.125 3.03832 7.18426 2.89524 7.28975 2.78975C7.39524 2.68426 7.53831 2.625 7.6875 2.625Z" fill="var(--fill-0, #E6EEE9)"/>
</g>
</svg>
