<svg preserveAspectRatio="none" width="100%" height="100%" overflow="visible" style="display: block;" viewBox="0 0 60 60" fill="none" xmlns="http://www.w3.org/2000/svg">
<g id="Icon" opacity="0.5">
<path id="Vector" d="M30 17.5V52.5" stroke="var(--stroke-0, white)" stroke-width="5" stroke-linecap="round" stroke-linejoin="round"/>
<path id="Vector_2" d="M7.50024 45C6.8372 45 6.20132 44.7366 5.73248 44.2678C5.26364 43.7989 5.00024 43.163 5.00024 42.5V10C5.00024 9.33696 5.26364 8.70107 5.73248 8.23223C6.20132 7.76339 6.8372 7.5 7.50024 7.5H20.0002C22.6524 7.5 25.1959 8.55357 27.0713 10.4289C28.9467 12.3043 30.0002 14.8478 30.0002 17.5C30.0002 14.8478 31.0538 12.3043 32.9292 10.4289C34.8045 8.55357 37.3481 7.5 40.0002 7.5H52.5002C53.1633 7.5 53.7992 7.76339 54.268 8.23223C54.7369 8.70107 55.0002 9.33696 55.0002 10V42.5C55.0002 43.163 54.7369 43.7989 54.268 44.2678C53.7992 44.7366 53.1633 45 52.5002 45H37.5002C35.5111 45 33.6035 45.7902 32.1969 47.1967C30.7904 48.6032 30.0002 50.5109 30.0002 52.5C30.0002 50.5109 29.2101 48.6032 27.8035 47.1967C26.397 45.7902 24.4894 45 22.5002 45H7.50024Z" stroke="var(--stroke-0, white)" stroke-width="5" stroke-linecap="round" stroke-linejoin="round"/>
</g>
</svg>
