<svg preserveAspectRatio="none" width="100%" height="100%" overflow="visible" style="display: block;" viewBox="0 0 80 80" fill="none" xmlns="http://www.w3.org/2000/svg">
<g id="Icon" opacity="0.5">
<path id="Vector" d="M40 23.3333V70" stroke="var(--stroke-0, white)" stroke-width="6.66667" stroke-linecap="round" stroke-linejoin="round"/>
<path id="Vector_2" d="M10 60C9.11595 60 8.2681 59.6488 7.64298 59.0237C7.01786 58.3986 6.66667 57.5507 6.66667 56.6667V13.3333C6.66667 12.4493 7.01786 11.6014 7.64298 10.9763C8.2681 10.3512 9.11595 10 10 10H26.6667C30.2029 10 33.5943 11.4048 36.0948 13.9052C38.5952 16.4057 40 19.7971 40 23.3333C40 19.7971 41.4048 16.4057 43.9052 13.9052C46.4057 11.4048 49.7971 10 53.3333 10H70C70.8841 10 71.7319 10.3512 72.357 10.9763C72.9821 11.6014 73.3333 12.4493 73.3333 13.3333V56.6667C73.3333 57.5507 72.9821 58.3986 72.357 59.0237C71.7319 59.6488 70.8841 60 70 60H50C47.3478 60 44.8043 61.0536 42.9289 62.9289C41.0536 64.8043 40 67.3478 40 70C40 67.3478 38.9464 64.8043 37.0711 62.9289C35.1957 61.0536 32.6522 60 30 60H10Z" stroke="var(--stroke-0, white)" stroke-width="6.66667" stroke-linecap="round" stroke-linejoin="round"/>
</g>
</svg>
